<?xml version="1.0" encoding="utf-8"?>
<!-- Generator: Adobe Illustrator 16.0.0, SVG Export Plug-In . SVG Version: 6.00 Build 0)  -->
<!DOCTYPE svg PUBLIC "-//W3C//DTD SVG 1.1//EN" "http://www.w3.org/Graphics/SVG/1.1/DTD/svg11.dtd">
<svg version="1.1" xmlns="http://www.w3.org/2000/svg" xmlns:xlink="http://www.w3.org/1999/xlink" x="0px" y="0px" width="104px"
	 height="104px" viewBox="0 0 104 104" enable-background="new 0 0 104 104" xml:space="preserve">
<g id="Layer_1">
	<g>
		<g>
			<circle fill-rule="evenodd" clip-rule="evenodd" fill="#96C252" cx="52" cy="52" r="52"/>
		</g>
	</g>
</g>
<g id="Layer_2">
	<path fill-rule="evenodd" clip-rule="evenodd" fill="#799B42" d="M83.74,57.788V37.095c0-2.586-0.42-4.302-1.257-5.148
		c-0.837-0.846-2.081-1.106-3.729-0.785c-1.292,0.253-2.409,0.759-3.354,1.52c-0.945,0.759-1.696,1.705-2.257,2.838
		c0,0.397,0.011,0.736,0.031,1.014c0.021,0.278,0.032,0.564,0.032,0.856v22.299l-9,1.624V40.841c0-2.498-0.41-4.181-1.23-5.051
		c-0.819-0.87-2.046-1.144-3.68-0.825c-1.204,0.235-2.258,0.675-3.163,1.317c-0.904,0.643-1.65,1.445-2.239,2.407v24.485
		l-8.812,1.59V31.427l8.204-1.632l0.364,4.354c1.056-1.817,2.381-3.324,3.979-4.52c1.6-1.198,3.454-2.007,5.562-2.428
		c2.134-0.425,3.964-0.311,5.488,0.342c1.525,0.655,2.683,1.875,3.47,3.658c1.035-2.018,2.382-3.703,4.045-5.056
		c1.664-1.354,3.623-2.257,5.88-2.708c3.354-0.668,6.008-0.035,7.957,1.904c1.954,1.943,2.933,5.299,2.933,10.064v20.717
		L83.74,57.788z M47.809,76.17l9.229,3.447l-9.229,6.604v-2.601l-9.208,1.563V80.36l9.208-1.589V76.17z M29.843,34.459l8.692-1.729
		v33.217l-8.692,1.568V34.459z M29.843,19.855l8.692-1.8v6.724l-8.692,1.767V19.855z M28.899,85.061l5.477,8.235l-5.346,0.887
		l-2.864-5.518l-2.854,6.464l-5.296,0.878l5.41-10.011l-5.25-7.992l5.266-0.926l2.612,5.282l0.097-0.018l2.684-6.213l5.362-0.942
		L28.899,85.061z M14.677,22.997l8.546-1.77v47.484l-8.546,1.543V22.997z M68.496,70.044c1.431-0.25,2.674-0.062,3.73,0.567
		c1.056,0.629,1.942,1.516,2.657,2.66c0.697-1.391,1.578-2.586,2.645-3.587c1.067-1.003,2.33-1.633,3.789-1.888
		c2.24-0.393,4.038,0.012,5.392,1.214c1.354,1.204,2.032,2.919,2.032,5.142v0.773c0,2.232-0.678,4.179-2.032,5.836
		c-1.354,1.656-3.161,2.672-5.42,3.048c-1.449,0.241-2.705,0.033-3.768-0.625c-1.062-0.655-1.94-1.579-2.638-2.769
		c-0.715,1.438-1.602,2.657-2.657,3.662c-1.057,1.004-2.29,1.623-3.703,1.858c-2.231,0.372-4.005-0.04-5.32-1.23
		c-1.314-1.19-1.971-2.884-1.971-5.084V78.86c0-2.189,0.656-4.107,1.971-5.757C64.519,71.453,66.283,70.433,68.496,70.044z
		 M76.948,76.661c0.122,0.785,0.58,1.687,1.373,2.707c0.794,1.022,1.783,1.434,2.968,1.234c1.062-0.18,1.874-0.718,2.434-1.614
		c0.562-0.898,0.843-2.018,0.843-3.358v-0.77c0-1.312-0.278-2.328-0.834-3.05c-0.557-0.721-1.36-0.989-2.414-0.806
		c-1.213,0.21-2.206,0.932-2.981,2.166c-0.774,1.231-1.237,2.253-1.388,3.064V76.661z M65.304,78.919
		c0,1.327,0.271,2.342,0.811,3.046c0.541,0.703,1.344,0.966,2.409,0.786c1.16-0.195,2.134-0.937,2.921-2.227
		c0.789-1.29,1.244-2.342,1.366-3.156v-0.425c-0.141-0.75-0.599-1.609-1.373-2.575c-0.773-0.965-1.754-1.345-2.941-1.139
		c-1.047,0.182-1.841,0.724-2.382,1.627c-0.54,0.903-0.811,2.003-0.811,3.301V78.919z"/>
</g>
<g id="Layer_3">
	<path fill-rule="evenodd" clip-rule="evenodd" fill="#FFFFFF" d="M83.74,55.052V34.358c0-2.586-0.42-4.302-1.257-5.148
		c-0.837-0.846-2.081-1.106-3.729-0.785c-1.292,0.253-2.409,0.759-3.354,1.52c-0.945,0.759-1.696,1.705-2.257,2.838
		c0,0.397,0.011,0.736,0.031,1.014c0.021,0.278,0.032,0.564,0.032,0.856v22.299l-9,1.624V38.104c0-2.497-0.41-4.181-1.23-5.05
		c-0.819-0.87-2.046-1.144-3.68-0.825c-1.204,0.235-2.258,0.675-3.163,1.317c-0.904,0.643-1.65,1.445-2.239,2.407v24.484
		l-8.812,1.591V28.69l8.204-1.632l0.364,4.354c1.056-1.817,2.381-3.324,3.979-4.52c1.6-1.198,3.454-2.007,5.562-2.428
		c2.134-0.425,3.964-0.311,5.488,0.342c1.525,0.655,2.683,1.875,3.47,3.658c1.035-2.018,2.382-3.703,4.045-5.056
		c1.664-1.354,3.623-2.257,5.88-2.708c3.354-0.668,6.008-0.035,7.957,1.904c1.954,1.943,2.933,5.299,2.933,10.064v20.717
		L83.74,55.052z M47.809,73.434l9.229,3.446l-9.229,6.605v-2.602l-9.208,1.563v-4.824l9.208-1.588V73.434z M29.843,31.722
		l8.692-1.729V63.21l-8.692,1.569V31.722z M29.843,17.119l8.692-1.8v6.723l-8.692,1.768V17.119z M28.899,82.323l5.477,8.235
		l-5.346,0.887l-2.864-5.518l-2.854,6.465l-5.296,0.877l5.41-10.011l-5.25-7.992l5.266-0.926l2.612,5.282l0.097-0.017l2.684-6.213
		l5.362-0.943L28.899,82.323z M14.677,20.26l8.546-1.77v47.484l-8.546,1.543V20.26z M68.496,67.308
		c1.431-0.251,2.674-0.062,3.73,0.566c1.056,0.629,1.942,1.517,2.657,2.66c0.697-1.39,1.578-2.585,2.645-3.587
		c1.067-1.002,2.33-1.632,3.789-1.888c2.24-0.392,4.038,0.012,5.392,1.215c1.354,1.204,2.032,2.918,2.032,5.141v0.773
		c0,2.232-0.678,4.18-2.032,5.837c-1.354,1.655-3.161,2.671-5.42,3.047c-1.449,0.242-2.705,0.033-3.768-0.624
		c-1.062-0.655-1.94-1.58-2.638-2.769c-0.715,1.437-1.602,2.657-2.657,3.662c-1.057,1.003-2.29,1.622-3.703,1.857
		c-2.231,0.372-4.005-0.039-5.32-1.23c-1.314-1.19-1.971-2.884-1.971-5.083v-0.762c0-2.19,0.656-4.108,1.971-5.757
		C64.519,68.716,66.283,67.696,68.496,67.308z M76.948,73.924c0.122,0.785,0.58,1.687,1.373,2.708
		c0.794,1.021,1.783,1.434,2.968,1.233c1.062-0.179,1.874-0.717,2.434-1.614c0.562-0.897,0.843-2.017,0.843-3.357v-0.77
		c0-1.312-0.278-2.328-0.834-3.05c-0.557-0.721-1.36-0.99-2.414-0.807c-1.213,0.211-2.206,0.932-2.981,2.166
		c-0.774,1.232-1.237,2.253-1.388,3.064V73.924z M65.304,76.183c0,1.326,0.271,2.341,0.811,3.045
		c0.541,0.704,1.344,0.967,2.409,0.787c1.16-0.195,2.134-0.937,2.921-2.227c0.789-1.29,1.244-2.343,1.366-3.156v-0.425
		c-0.141-0.751-0.599-1.609-1.373-2.576c-0.773-0.965-1.754-1.345-2.941-1.139c-1.047,0.182-1.841,0.725-2.382,1.628
		c-0.54,0.902-0.811,2.003-0.811,3.301V76.183z"/>
</g>
</svg>
